<svg width="559" height="417" viewBox="0 0 559 417" fill="none" xmlns="http://www.w3.org/2000/svg">
    <g clip-path="url(#clip0_332_1228)">
        <path
            d="M289.522 350.227L305.908 346.028L301.127 360.32L305.908 374.572L289.522 370.414L273.09 374.572L277.917 360.32L273.09 346.028L289.522 350.227Z"
            fill="black" stroke="white" stroke-miterlimit="10" />
    </g>
    <g clip-path="url(#clip1_332_1228)">
        <path
            d="M116.317 279.762L145.619 293.648L116.317 307.646L100.287 333.077L84.2573 307.646L54.9548 293.648L84.2573 279.762L100.287 254.22L116.317 279.762Z"
            fill="black" stroke="white" stroke-miterlimit="10" />
    </g>
    <path
        d="M525.549 315.226C523.803 317.979 520.54 319.987 515.804 321.236C511.068 322.485 504.918 322.958 497.508 322.68C482.69 322.124 462.955 318.571 439.668 312.372C393.103 299.976 332.441 277.027 268.728 246.46C205.015 215.894 150.338 183.508 113.444 155.863C94.9928 142.039 81.0098 129.415 72.5647 118.811C68.3413 113.507 65.5209 108.731 64.2091 104.58C62.8974 100.429 63.1093 96.9584 64.8555 94.2049C66.6017 91.4514 69.8641 89.444 74.6003 88.1949C79.3368 86.9456 85.4862 86.4726 92.8966 86.7506C107.714 87.3066 127.45 90.8596 150.737 97.0587C197.302 109.455 257.963 132.403 321.676 162.97C385.389 193.537 440.066 225.923 476.961 253.567C495.412 267.392 509.395 280.015 517.84 290.62C522.063 295.923 524.884 300.7 526.195 304.851C527.507 309.001 527.295 312.472 525.549 315.226Z"
        stroke="black" />
    <path
        d="M506.715 344.921C504.969 347.674 501.706 349.682 496.97 350.931C492.234 352.18 486.084 352.653 478.674 352.375C463.856 351.819 444.121 348.266 420.834 342.067C374.269 329.671 313.607 306.722 249.894 276.156C186.181 245.589 131.504 213.203 94.6096 185.559C76.1588 171.734 62.1758 159.11 53.7308 148.506C49.5073 143.203 46.6869 138.426 45.3752 134.275C44.0635 130.125 44.2753 126.654 46.0215 123.9C47.7677 121.147 51.0301 119.139 55.7663 117.89C60.5028 116.641 66.6522 116.168 74.0627 116.446C88.8802 117.002 108.616 120.555 131.903 126.754C178.468 139.15 239.129 162.099 302.842 192.666C366.555 223.232 421.232 255.618 458.127 283.262C476.578 297.087 490.561 309.711 499.006 320.315C503.229 325.619 506.05 330.395 507.361 334.546C508.673 338.697 508.461 342.167 506.715 344.921Z"
        stroke="black" />
    <path
        d="M487.885 374.616C486.139 377.37 482.876 379.377 478.14 380.626C473.404 381.876 467.254 382.349 459.844 382.071C445.026 381.515 425.291 377.962 402.004 371.762C355.439 359.366 294.777 336.418 231.064 305.851C167.351 275.284 112.674 242.899 75.7795 215.254C57.3288 201.429 43.3457 188.806 34.9007 178.201C30.6772 172.898 27.8569 168.122 26.5451 163.971C25.2334 159.82 25.4452 156.349 27.1914 153.596C28.9377 150.842 32.2 148.835 36.9362 147.585C41.6727 146.336 47.8221 145.863 55.2326 146.141C70.0502 146.697 89.7857 150.25 113.072 156.449C159.638 168.845 220.299 191.794 284.012 222.361C347.725 252.928 402.402 285.313 439.297 312.958C457.748 326.782 471.731 339.406 480.176 350.011C484.399 355.314 487.219 360.09 488.531 364.241C489.843 368.392 489.631 371.863 487.885 374.616Z"
        stroke="black" />
    <ellipse cx="122.418" cy="84.6144" rx="14.4297" ry="12.5505" fill="#B9FF66" />
    <ellipse cx="391.927" cy="352.224" rx="9.30948" ry="8.09709" fill="#B9FF66" />
    <ellipse cx="75.8695" cy="52.2264" rx="21.8773" ry="19.0282" fill="black" />
    <path
        d="M284.843 310.596C278.975 312.34 272.268 308.883 269.935 302.889L233.629 210.37L254.844 204.058L291.186 296.704C293.519 302.635 290.676 308.851 284.843 310.596Z"
        fill="black" />
    <path
        d="M281.671 311.737C279.958 311.737 278.208 311.389 276.532 310.659C273.142 309.2 270.444 306.472 269.132 303.11L232.826 210.592C232.68 210.243 232.899 209.83 233.337 209.704L254.551 203.392C254.77 203.328 254.989 203.328 255.171 203.424C255.353 203.519 255.499 203.646 255.572 203.836L291.914 296.482C294.356 302.761 291.294 309.39 285.061 311.262C284.004 311.579 282.838 311.737 281.671 311.737ZM234.649 210.814L270.699 302.666C271.866 305.679 274.272 308.153 277.261 309.422C279.666 310.437 282.254 310.627 284.587 309.93C289.982 308.312 292.607 302.476 290.42 296.926L254.333 204.946L234.649 210.814Z"
        fill="black" />
    <path
        d="M251.089 124.194L182.451 166.79L155.732 190.927L145.234 207.071L145.198 207.198C143.12 209.989 144.323 216.427 148.223 222.993C152.051 229.463 157.445 233.967 161.236 234.221L161.127 234.284L181.285 236.187L219.012 230.954L299.096 206.024L398.645 220.868L399.338 220.899C374.332 216.84 340.578 187.755 316.046 146.618C291.55 105.513 283.75 64.8831 294.503 44.8379H294.467L251.636 123.179L251.089 124.194Z"
        fill="#B9FF66" />
    <path
        d="M415.883 219.109C440.485 207.992 435.728 157.592 405.257 106.538C374.786 55.4846 330.14 23.1097 305.537 34.2269C280.935 45.3441 285.692 95.7437 316.163 146.797C346.634 197.851 391.28 230.226 415.883 219.109Z"
        fill="white" />
    <path
        d="M405.062 222.009C394.345 222.009 381.441 216.808 367.553 206.69C348.635 192.925 330.081 171.706 315.318 146.903C292.974 109.35 283.751 70.8458 291.844 48.8024C294.541 41.4441 299.061 36.3059 305.221 33.5465C317.469 28.0912 334.711 32.7219 353.811 46.6139C372.73 60.3792 391.283 81.5979 406.046 106.401C428.427 143.954 437.65 182.458 429.521 204.502C426.824 211.86 422.304 216.998 416.143 219.758C412.826 221.28 409.108 222.009 405.062 222.009ZM316.375 32.7219C312.621 32.7219 309.122 33.3879 305.987 34.8152C300.191 37.3843 295.963 42.2687 293.411 49.2782C285.428 71.0044 294.614 109.097 316.776 146.332C346.958 196.985 391.21 229.4 415.451 218.584C421.246 216.015 425.475 211.13 428.026 204.121C436.009 182.395 426.824 144.303 404.661 107.067C378.379 62.98 341.491 32.7219 316.375 32.7219Z"
        fill="black" />
    <path
        d="M405.06 222.01C394.343 222.01 381.439 216.808 367.551 206.69C348.633 192.925 330.079 171.706 315.316 146.904C292.972 109.351 283.749 70.846 291.842 48.8027C294.539 41.4443 299.059 36.3061 305.219 33.5468C313.421 29.8676 324.138 30.7874 336.203 36.1793C347.758 41.3492 360.261 50.5154 372.436 62.663C372.728 62.9485 372.691 63.3925 372.363 63.6463C372.035 63.9 371.525 63.8683 371.233 63.5828C346.519 38.9069 321.513 27.8694 305.985 34.8154C300.189 37.3845 295.961 42.2689 293.409 49.2784C285.426 71.0046 294.612 109.097 316.774 146.333C343.02 190.388 379.945 220.678 405.024 220.678C408.778 220.678 412.277 220.011 415.412 218.584C421.208 216.015 425.436 211.131 427.988 204.121C435.971 182.395 426.785 144.303 404.623 107.067C398.025 95.966 390.589 85.5311 382.606 76.0476C382.351 75.7305 382.424 75.2864 382.788 75.0644C383.153 74.8424 383.663 74.9058 383.918 75.223C391.974 84.7698 399.41 95.2682 406.081 106.433C428.425 143.954 437.648 182.458 429.519 204.502C426.822 211.86 422.302 216.998 416.141 219.758C412.824 221.28 409.106 222.01 405.06 222.01Z"
        fill="black" />
    <path
        d="M360.058 154.119C365.757 151.543 364.661 139.877 357.609 128.062C350.558 116.247 340.221 108.757 334.521 111.332C328.822 113.908 329.918 125.574 336.97 137.389C344.021 149.204 354.358 156.694 360.058 154.119Z"
        fill="#B9FF66" />
    <path
        d="M357.563 155.341C351.294 155.341 342.545 148.299 336.239 137.674C330.99 128.857 328.84 119.786 330.772 114.552C331.464 112.713 332.594 111.412 334.162 110.715C340.358 107.955 350.966 115.472 358.329 127.81C363.578 136.628 365.729 145.699 363.797 150.932C363.104 152.772 361.974 154.072 360.407 154.77C359.532 155.15 358.584 155.341 357.563 155.341ZM337.005 111.508C336.239 111.508 335.51 111.634 334.891 111.92C333.688 112.459 332.813 113.474 332.266 114.965C330.48 119.849 332.558 128.54 337.624 137.04C344.332 148.299 354.429 155.88 359.641 153.533C360.844 152.994 361.719 151.979 362.266 150.488C364.052 145.572 361.938 136.913 356.907 128.413C351.002 118.549 342.545 111.508 337.005 111.508Z"
        fill="#B9FF66" />
    <path
        d="M399.519 210.179C390.115 210.179 378.815 205.612 366.64 196.763C350.091 184.71 333.834 166.124 320.93 144.43C301.355 111.571 293.3 77.8555 300.371 58.5397C302.741 52.0695 306.714 47.5656 312.145 45.1234C324.611 39.5729 342.947 45.9798 362.485 62.6947C362.813 62.9801 362.813 63.3925 362.485 63.6779C362.156 63.9634 361.683 63.9634 361.355 63.6779C342.327 47.4071 324.648 41.0636 312.874 46.3604C307.844 48.6123 304.162 52.8307 301.902 58.9521C294.94 77.9189 302.959 111.222 322.351 143.795C345.279 182.332 377.539 208.784 399.483 208.784C402.763 208.784 405.789 208.181 408.559 206.976C413.59 204.724 417.271 200.505 419.531 194.384C426.493 175.417 418.474 142.114 399.082 109.541C393.213 99.7085 386.652 90.4789 379.58 82.1373C379.325 81.8201 379.398 81.376 379.763 81.154C380.127 80.932 380.637 80.9954 380.893 81.3126C388.037 89.7494 394.635 99.0108 400.54 108.906C420.114 141.765 428.17 175.481 421.099 194.796C418.729 201.267 414.756 205.77 409.325 208.213C406.336 209.513 403.055 210.179 399.519 210.179Z"
        fill="black" />
    <path
        d="M181.321 236.853C181.285 236.853 181.248 236.853 181.248 236.853L161.091 234.95C160.981 234.95 160.872 234.919 160.763 234.855C156.607 234.284 151.358 229.717 147.531 223.31C143.448 216.555 142.245 209.957 144.469 206.849L144.505 206.754L155.003 190.578C155.04 190.515 155.076 190.483 155.113 190.451L181.832 166.315C181.868 166.283 181.905 166.251 181.941 166.219L250.397 123.719L293.701 44.521C293.811 44.3624 293.956 44.2356 294.175 44.1721C294.394 44.1087 294.613 44.1087 294.795 44.2039C295.196 44.3624 295.378 44.7748 295.196 45.1237C284.224 65.5812 292.899 106.242 316.739 146.269C340.614 186.36 373.895 216.047 399.52 220.139C399.921 220.202 400.213 220.519 400.176 220.9C400.14 221.249 399.775 221.502 399.374 221.534L398.682 221.502C398.645 221.502 398.609 221.502 398.572 221.502L299.205 206.69L219.304 231.557C219.267 231.557 219.194 231.588 219.158 231.588L181.431 236.822C181.394 236.853 181.358 236.853 181.321 236.853ZM161.674 233.618L181.321 235.458L218.866 230.225L298.914 205.327C299.06 205.295 299.169 205.263 299.315 205.295L388.767 218.616C364.599 209.386 336.35 182.141 315.39 146.936C294.576 111.983 285.281 76.4919 290.384 54.0679L251.819 124.48C251.746 124.575 251.673 124.67 251.563 124.734L182.998 167.33L156.388 191.339L145.89 207.515C145.89 207.547 145.854 207.579 145.854 207.579C143.959 210.148 145.234 216.491 148.916 222.676C152.525 228.734 157.737 233.301 161.309 233.523C161.455 233.523 161.565 233.555 161.674 233.618Z"
        fill="black" />
    <path
        d="M251.197 123.94L294.465 44.8062H294.502C283.748 64.8513 291.585 105.481 316.044 146.586C340.576 187.755 374.33 216.84 399.409 220.836L398.716 220.804L299.313 205.992L297.017 205.643C285.462 203.867 270.043 190.8 258.998 172.15C247.661 153.025 245.657 133.963 250.687 124.892L251.197 123.94Z"
        fill="white" />
    <path
        d="M399.41 221.534C399.41 221.534 399.373 221.534 399.41 221.534L398.681 221.502C398.644 221.502 398.608 221.502 398.571 221.502L299.168 206.69L296.872 206.341C284.66 204.47 269.168 190.863 258.269 172.499C245.912 151.629 245.293 133.043 249.958 124.606L250.505 123.655L293.773 44.5523C293.883 44.3937 294.028 44.2668 294.247 44.2034C294.466 44.14 294.684 44.14 294.867 44.2351C295.268 44.3937 295.45 44.806 295.268 45.1549C284.296 65.6124 292.971 106.274 316.811 146.301C340.686 186.391 373.967 216.078 399.592 220.17C399.993 220.233 400.285 220.55 400.248 220.931C400.139 221.248 399.811 221.534 399.41 221.534ZM290.31 54.0674L251.927 124.257L251.38 125.209C246.751 133.582 248.099 152.295 259.691 171.833C270.371 189.848 285.426 203.169 297.163 204.946L299.46 205.294L388.729 218.616C364.562 209.386 336.312 182.141 315.352 146.935C294.539 111.983 285.244 76.4914 290.31 54.0674Z"
        fill="black" />
    <path
        d="M180.227 236.758C180.191 236.758 180.154 236.758 180.154 236.758L161.054 234.982C160.944 234.982 160.835 234.95 160.726 234.887C156.57 234.316 151.321 229.749 147.494 223.342C143.448 216.554 142.245 209.957 144.468 206.849L144.505 206.754L155.003 190.578C155.221 190.229 155.695 190.134 156.096 190.324C156.497 190.515 156.607 190.927 156.388 191.276L145.89 207.515C145.89 207.547 145.853 207.578 145.853 207.578C143.958 210.148 145.234 216.491 148.915 222.676C152.524 228.734 157.737 233.301 161.309 233.523C161.418 233.523 161.564 233.555 161.637 233.618L180.3 235.363C180.737 235.394 181.066 235.743 180.993 236.124C180.956 236.473 180.628 236.758 180.227 236.758Z"
        fill="black" />
    <path
        d="M181.503 236.06C175.307 235.68 166.631 228.036 160.325 217.474C153.654 206.278 152.087 194.701 156.17 190.578L145.271 207.071L145.198 207.198C143.12 209.989 144.323 216.428 148.223 222.993C152.051 229.463 157.445 233.967 161.236 234.221L161.127 234.284L181.503 236.06Z"
        fill="white" />
    <path
        d="M181.503 236.758C181.467 236.758 181.467 236.758 181.43 236.758C181.284 236.758 181.102 236.726 180.956 236.726L161.054 234.982C160.944 234.982 160.835 234.95 160.726 234.887C156.57 234.316 151.321 229.749 147.494 223.342C143.448 216.554 142.245 209.957 144.468 206.849L144.505 206.754L154.091 192.227C154.456 191.403 154.93 190.673 155.513 190.071C155.768 189.785 156.242 189.753 156.57 189.944C156.898 190.166 157.008 190.546 156.789 190.863L155.44 192.862C153.289 197.905 155.404 207.8 160.944 217.062C166.959 227.18 175.16 234.57 181.029 235.236L181.467 235.267C181.904 235.299 182.232 235.648 182.196 236.029C182.232 236.473 181.904 236.758 181.503 236.758ZM161.637 233.618L175.561 234.855C170.203 231.874 164.298 225.721 159.596 217.791C155.039 210.147 152.779 202.218 153.144 196.509L145.89 207.515C145.89 207.547 145.853 207.578 145.853 207.578C143.958 210.147 145.234 216.491 148.915 222.676C152.524 228.734 157.737 233.301 161.309 233.523C161.418 233.523 161.564 233.555 161.637 233.618Z"
        fill="black" />
    <path
        d="M217.661 231.081L219.265 230.795C210.59 232.381 196.884 220.963 187.224 204.755C177.346 188.199 175.487 171.674 182.486 166.79L181.574 167.583L156.241 190.483C152.085 194.542 153.616 206.183 160.323 217.442C166.775 228.289 175.924 236.028 182.158 235.997L217.661 231.081Z"
        fill="black" />
    <path
        d="M182.123 236.726C175.488 236.726 166.266 228.956 159.596 217.791C152.816 206.373 151.102 194.447 155.622 190.039L180.482 167.583C180.92 167.076 181.43 166.632 181.977 166.251C182.305 166.029 182.779 166.061 183.07 166.314C183.362 166.6 183.362 167.012 183.07 167.266L181.649 168.566C176.582 174.466 179.097 189.563 187.955 204.438C197.505 220.487 210.846 231.493 219.012 230.161L219.121 230.129C219.558 230.066 219.959 230.288 220.069 230.668C220.142 231.049 219.886 231.398 219.449 231.493C219.412 231.493 219.376 231.493 219.34 231.525L217.845 231.779H217.809L182.305 236.695C182.232 236.695 182.159 236.726 182.123 236.726ZM178.368 171.516L156.825 190.99C152.816 194.923 154.638 206.405 161.054 217.157C167.323 227.687 176.181 235.299 182.123 235.331L213.471 230.986C205.014 228.385 194.589 218.584 186.533 205.104C178.878 192.259 175.926 179.192 178.368 171.516Z"
        fill="black" />
    <path
        d="M334.526 111.317C328.804 113.855 329.642 125.622 336.932 137.357C349.143 156.99 358.876 154.675 360.006 154.326C360.042 154.326 360.042 154.357 360.006 154.357L339.046 169.042C332.886 161.526 327.017 153.152 321.623 144.113C316.483 135.454 312.145 126.827 308.719 118.454L334.526 111.317Z"
        fill="black" />
    <path
        d="M339.047 169.74C339.01 169.74 338.974 169.74 338.938 169.74C338.719 169.708 338.537 169.613 338.391 169.455C332.085 161.747 326.216 153.311 320.931 144.462C315.864 135.961 311.49 127.303 307.99 118.739C307.917 118.549 307.917 118.359 308.027 118.2C308.136 118.041 308.282 117.914 308.501 117.851L334.308 110.715C334.709 110.62 335.147 110.778 335.292 111.127C335.438 111.476 335.292 111.857 334.928 112.015C333.689 112.554 332.777 113.633 332.23 115.219C330.444 120.198 332.631 129.015 337.698 137.103C349.618 156.26 358.804 154.072 359.788 153.755C360.152 153.628 360.59 153.787 360.772 154.072C360.954 154.357 360.881 154.77 360.59 154.992L339.557 169.582C339.411 169.677 339.229 169.74 339.047 169.74ZM309.776 118.898C313.239 127.176 317.468 135.549 322.352 143.796C327.455 152.359 333.142 160.511 339.229 168.027L357.419 155.277C353.263 155.119 345.426 152.423 336.24 137.674C330.918 129.142 328.731 120.135 330.663 114.711C330.918 114.013 331.21 113.411 331.574 112.84L309.776 118.898Z"
        fill="black" />
    <path
        d="M442.371 66.0703C459.036 58.456 465.481 40.5794 456.767 26.1417C448.054 11.7041 427.482 6.17265 410.817 13.7869C394.153 21.4012 387.708 39.2778 396.422 53.7154C405.135 68.1531 425.707 73.6845 442.371 66.0703Z"
        fill="black" />
    <path
        d="M411.073 33.3886C412.676 31.4855 415.046 30.312 417.743 30.0583C419.785 29.868 421.68 30.2486 423.466 31.2001C424.377 31.6758 425.179 32.2785 425.945 33.008C426.492 32.1516 427.148 31.3904 427.913 30.7561C429.408 29.4874 431.194 28.7579 433.199 28.5676C435.896 28.3138 438.521 29.0116 440.562 30.5658C442.567 32.0882 443.843 34.3084 444.171 36.814C444.499 39.3831 443.697 41.857 441.655 44.5847C439.833 47.0269 437.063 49.5643 433.855 52.5457C432.761 53.5606 431.522 54.7025 430.246 55.9077C429.918 56.2249 429.444 56.4469 428.934 56.4786C428.424 56.542 427.95 56.4152 427.512 56.1614C425.945 55.2099 424.45 54.3218 423.138 53.5606C419.274 51.277 415.921 49.3106 413.515 47.2807C410.817 45.0287 409.432 42.7451 409.104 40.176C408.813 37.6704 409.505 35.2599 411.073 33.3886Z"
        fill="white" />
    <path
        d="M536.91 67.6854C549.109 57.0704 549.109 39.8602 536.91 29.2453C524.71 18.6303 504.931 18.6303 492.732 29.2453C480.532 39.8602 480.532 57.0704 492.732 67.6854C504.931 78.3003 524.71 78.3003 536.91 67.6854Z"
        fill="#B9FF66" />
    <path
        d="M514.814 76.3338C497.172 76.3338 482.773 63.8373 482.773 48.4545C482.773 33.1034 497.135 20.5752 514.814 20.5752C532.493 20.5752 546.855 33.0717 546.855 48.4545C546.855 63.8056 532.493 76.3338 514.814 76.3338ZM514.814 21.9707C498.047 21.9707 484.377 33.8329 484.377 48.4545C484.377 63.0444 498.01 74.9383 514.814 74.9383C531.582 74.9383 545.251 63.0761 545.251 48.4545C545.251 33.8647 531.618 21.9707 514.814 21.9707Z"
        fill="#B9FF66" />
    <path
        d="M523.27 51.1506C521.52 51.1506 519.989 51.8801 518.969 53.0219L508.434 49.4379C508.434 49.311 508.471 49.2159 508.471 49.089C508.471 48.867 508.434 48.645 508.398 48.423L519.187 44.0777C520.172 45.061 521.63 45.6953 523.27 45.727C526.259 45.727 528.738 43.602 528.738 40.9695C528.738 38.3369 526.295 36.1802 523.27 36.1802C520.281 36.1802 517.802 38.3052 517.802 40.9377C517.802 41.1598 517.839 41.3818 517.875 41.6038L507.085 45.949C506.101 44.9658 504.643 44.3315 503.003 44.2997C500.014 44.2997 497.535 46.4248 497.535 49.0573C497.535 51.6898 499.977 53.8466 503.003 53.8466C504.753 53.8466 506.284 53.1171 507.304 51.9753L517.839 55.5593C517.839 55.6862 517.802 55.7813 517.802 55.9082C517.802 58.5407 520.244 60.6975 523.27 60.6975C526.259 60.6975 528.738 58.5724 528.738 55.9399C528.701 53.3074 526.259 51.1824 523.27 51.1506Z"
        fill="black" />
    <path
        d="M523.683 153.839C537.989 145.199 541.583 128.163 531.711 115.787C521.839 103.412 502.239 100.383 487.934 109.023C473.628 117.663 470.034 134.699 479.906 147.074C489.778 159.45 509.378 162.478 523.683 153.839Z"
        fill="black" />
    <path
        d="M497.938 144.43L493.345 122.767C493.126 121.657 494.293 120.737 495.532 121.023L522.688 127.715C524.074 128.064 524.402 129.618 523.272 130.379L500.672 145.35C499.688 146.048 498.193 145.572 497.938 144.43Z"
        fill="white" />
    <path
        d="M505.5 242.574C523.166 235.091 530.558 216.64 522.011 201.363C513.463 186.086 492.213 179.768 474.548 187.251C456.882 194.735 449.489 213.185 458.037 228.462C466.584 243.739 487.834 250.057 505.5 242.574Z"
        fill="#B9FF66" />
    <path
        d="M489.844 246.433C486.053 246.433 482.189 245.925 478.434 244.815C469.248 242.151 461.812 236.569 457.511 229.02C453.21 221.503 452.554 212.971 455.652 204.979C462.067 188.517 482.699 179.541 501.69 185.029C510.876 187.693 518.312 193.275 522.613 200.824C526.915 208.341 527.571 216.872 524.472 224.865C519.296 238.059 505.044 246.433 489.844 246.433ZM490.208 184.838C475.664 184.838 462.031 192.831 457.11 205.454C454.157 213.098 454.777 221.249 458.896 228.418C463.015 235.617 470.123 240.977 478.908 243.515C497.061 248.748 516.781 240.185 522.905 224.453C525.858 216.809 525.238 208.658 521.119 201.49C517 194.29 509.892 188.93 501.107 186.392C497.498 185.314 493.817 184.838 490.208 184.838Z"
        fill="black" />
    <path
        d="M508.143 209.926C507.779 217.633 492.797 235.649 489.225 239.867C488.861 240.311 488.095 240.279 487.767 239.804C485.507 236.632 478.034 225.975 474.134 217.348C472.567 213.922 471.583 210.814 471.692 208.626C472.093 199.872 480.586 193.053 490.647 193.401C500.707 193.814 508.544 201.172 508.143 209.926Z"
        fill="black" />
    <path
        d="M495.813 214.432C499.073 211.596 499.073 206.997 495.813 204.161C492.553 201.324 487.268 201.324 484.008 204.161C480.748 206.997 480.748 211.596 484.008 214.432C487.268 217.269 492.553 217.269 495.813 214.432Z"
        fill="#B9FF66" />
    <defs>
        <clipPath id="clip0_332_1228">
            <rect width="33.5141" height="29.1495" fill="white"
                transform="translate(272.766 345.746)" />
        </clipPath>
        <clipPath id="clip1_332_1228">
            <rect width="61.3549" height="61.3549" fill="white"
                transform="matrix(0.75453 0.656266 -0.75453 0.656266 100.287 253.439)" />
        </clipPath>
    </defs>
</svg>
    